<?xml version="1.0" encoding="UTF-8" standalone="no"?>
<svg
   xmlns:dc="http://purl.org/dc/elements/1.1/"
   xmlns:cc="http://creativecommons.org/ns#"
   xmlns:rdf="http://www.w3.org/1999/02/22-rdf-syntax-ns#"
   xmlns:svg="http://www.w3.org/2000/svg"
   xmlns="http://www.w3.org/2000/svg"
   xmlns:sodipodi="http://sodipodi.sourceforge.net/DTD/sodipodi-0.dtd"
   xmlns:inkscape="http://www.inkscape.org/namespaces/inkscape"
   width="2.3715832in"
   height="2.6941004in"
   viewBox="0 0 227.67199 258.63364"
   version="1.1"
   xml:space="preserve"
   style="clip-rule:evenodd;fill-rule:evenodd;stroke-linejoin:round;stroke-miterlimit:1.41420996"
   id="svg3729"
   sodipodi:docname="final-picarto.svg"
   inkscape:version="0.92.2 (5c3e80d, 2017-08-06)"><metadata
     id="metadata3735"><rdf:RDF><cc:Work
         rdf:about=""><dc:format>image/svg+xml</dc:format><dc:type
           rdf:resource="http://purl.org/dc/dcmitype/StillImage" /><dc:title></dc:title></cc:Work></rdf:RDF></metadata><defs
     id="defs3733" /><sodipodi:namedview
     pagecolor="#ffffff"
     bordercolor="#666666"
     borderopacity="1"
     objecttolerance="10"
     gridtolerance="10"
     guidetolerance="10"
     inkscape:pageopacity="0"
     inkscape:pageshadow="2"
     inkscape:window-width="1020"
     inkscape:window-height="817"
     id="namedview3731"
     showgrid="false"
     inkscape:zoom="0.8359833"
     inkscape:cx="171.26215"
     inkscape:cy="244.44576"
     inkscape:window-x="70"
     inkscape:window-y="255"
     inkscape:window-maximized="0"
     inkscape:current-layer="svg3729"
     units="in"
     fit-margin-top="0"
     fit-margin-left="0"
     fit-margin-right="0"
     fit-margin-bottom="0" /><path
     style="fill:#ffffff"
     d="M 84.11718,8.2003269e-4 C 83.25417,0.01242003 82.41939,0.14721003 81.62695,0.38754003 80.83451,0.62786003 80.08514,0.97477003 79.39257,1.41293 78.70001,1.85108 78.06338,2.38009 77.5,2.98519 76.93662,3.5903 76.4459,4.27137 76.04101,5.01254 75.63612,5.7537 75.31866,6.55487 75.10156,7.40121 c -0.2171,0.84634 -0.33399,1.73758 -0.33399,2.6582 v 29.91992 c 0,1.76456 0.18069,3.44563 0.52149,5.04492 0.34079,1.5993 0.84105,3.11804 1.48242,4.5625 0.64137,1.44446 1.42445,2.81322 2.32617,4.11328 0.90172,1.30006 1.92308,2.53118 3.04492,3.69727 1.12185,1.16609 2.34278,2.26799 3.64454,3.31054 1.30175,1.04256 2.68356,2.02563 4.125,2.95508 2.88287,1.85891 6.00479,3.50161 9.205073,4.97071 3.200277,1.46909 6.479877,2.76498 9.675777,3.92773 3.19591,1.16275 6.30798,2.19295 9.17774,3.13281 2.86976,0.93987 5.49692,1.7894 7.71875,2.58985 2.22183,0.80045 4.03889,1.55237 5.29101,2.29687 0.82238,0.48888 1.54031,1.06207 2.1543,1.69922 0.61399,0.63715 1.12436,1.33699 1.53125,2.08008 0.40689,0.74308 0.71103,1.52924 0.91211,2.33594 0.20108,0.80669 0.29836,1.63492 0.29492,2.46289 -0.003,0.82797 -0.10778,1.65598 -0.31445,2.46289 -0.20667,0.80691 -0.51522,1.59241 -0.92383,2.33593 -0.40861,0.74353 -0.91808,1.44423 -1.52734,2.08204 -0.60926,0.6378 -1.31833,1.21337 -2.12696,1.70312 -0.90125,0.54625 -2.45442,1.15051 -4.48437,1.8457 -2.02995,0.6952 -4.53588,1.48021 -7.33984,2.38868 -2.80397,0.90846 -5.90754,1.94088 -9.13086,3.12695 -3.22332,1.18607 -6.56747,2.52669 -9.85547,4.05469 -3.288,1.528 -6.51957,3.24347 -9.51758,5.17773 -1.499,0.96713 -2.93882,1.98761 -4.29883,3.06836 -1.36,1.08076 -2.63973,2.22141 -3.8164,3.42383 -1.17668,1.20242 -2.25022,2.4667 -3.19922,3.79883 -0.94901,1.33213 -1.77417,2.73129 -2.45117,4.20117 -0.67701,1.46988 -1.20574,3.01128 -1.56641,4.62695 -0.36067,1.61567 -0.55274,3.30667 -0.55274,5.07617 V 168.493 c 0,1.01425 0.12893,1.96254 0.36524,2.83984 0.23631,0.87731 0.58069,1.68478 1.01367,2.41211 0.43298,0.72734 0.9549,1.37511 1.54492,1.93946 0.59003,0.56435 1.24764,1.04525 1.95508,1.43359 0.70744,0.38834 1.46283,0.68545 2.24805,0.88477 0.78521,0.19932 1.60047,0.2996 2.42383,0.29687 0.82335,-0.003 1.65664,-0.11033 2.47851,-0.32812 0.82187,-0.21779 1.63136,-0.54632 2.41211,-0.99219 8.533003,-4.863 126.35531,-74.86633 133.57031,-79.23633 0.80813,-0.48975 1.51799,-1.06532 2.12696,-1.70312 0.60896,-0.63781 1.11691,-1.33851 1.52539,-2.08204 0.40847,-0.74352 0.71716,-1.52902 0.92382,-2.33593 0.20667,-0.80691 0.31288,-1.63492 0.31641,-2.46289 0.004,-0.82797 -0.096,-1.6562 -0.29687,-2.46289 -0.20093,-0.8067 -0.50345,-1.59286 -0.91016,-2.33594 -0.40671,-0.74309 -0.91743,-1.44293 -1.53125,-2.08008 -0.61382,-0.63715 -1.33205,-1.21034 -2.1543,-1.69922 C 212.76029,74.62489 95.38567,4.97035 89.51367,1.52035 88.59742,0.98185003 87.67967,0.59648003 86.77539,0.34847003 c -0.90429,-0.248 -1.79519,-0.35925 -2.65821,-0.34764999731 z"
     id="path3804"
     inkscape:connector-curvature="0" /><path
     style="fill:#ffffff"
     d="M 6.94726,8.2003269e-4 C 5.98551,0.00107003 5.07184,0.21866003 4.24023,0.61019003 3.40862,1.00172 2.65918,1.56727 2.03125,2.2684 1.40331,2.96952 0.89565,3.80616 0.54492,4.73519 0.19418,5.66422 0,6.68533 0,7.76058 v 243.11328 c 0,1.0745 0.19418,2.09638 0.54492,3.02538 0.35073,0.929 0.85839,1.7654 1.48633,2.4668 0.62793,0.7014 1.37737,1.2685 2.20898,1.6602 0.83161,0.3917 1.74528,0.6074 2.70703,0.6074 h 46.01563 c 0.962,0 1.87732,-0.2157 2.70898,-0.6074 0.83166,-0.3917 1.58111,-0.9588 2.20899,-1.6602 0.62787,-0.7014 1.13567,-1.5378 1.48632,-2.4668 0.35066,-0.929 0.54297,-1.95088 0.54297,-3.02538 V 7.76058 c 0,-1.07525 -0.19231,-2.09636 -0.54297,-3.02539 C 59.01653,3.80616 58.50873,2.96952 57.88086,2.2684 57.25298,1.56727 56.50353,1.00172 55.67187,0.61019003 c -0.83166,-0.39153 -1.74698,-0.60912 -2.70898,-0.60936999731 z"
     id="path3802"
     inkscape:connector-curvature="0" /></svg>